Coordinates
version=1
nRows=43
nColumns=12
inDegrees=yes

Units are S.I. units (second, meters, Newtons, ...)
Angles are in degrees

endheader
time	SC_y	SC_z	SC_x	AC_y	AC_z	AC_x	GH_y	GH_z	GH_yy	EL_x	PS_y
       0.0               -52.9          2.624          45.06          41.68         -1.334          14.15          60.48          50.13          106.7          135.9          20.99
   0.01159               -52.9          2.629          45.06          41.68         -1.336          14.15          60.44          50.12          106.7          135.9          21.01
   0.02319               -52.9          2.634          45.05          41.68         -1.337          14.15          60.41          50.12          106.7          135.9          21.03
   0.03478               -52.9          2.639          45.05          41.69         -1.339          14.15          60.37          50.11          106.7          135.9          21.04
   0.04638               -52.9          2.645          45.04          41.69         -1.341          14.15          60.33          50.11          106.7          135.9          21.06
   0.05797               -52.9          2.651          45.04          41.69         -1.343          14.15          60.28           50.1          106.7          135.8          21.08
   0.06956              -52.89          2.657          45.03          41.69         -1.345          14.15          60.24           50.1          106.7          135.8           21.1
   0.08116              -52.89          2.664          45.02           41.7         -1.348          14.15          60.19          50.09          106.7          135.8          21.12
   0.09275              -52.89          2.671          45.01           41.7          -1.35          14.15          60.13          50.08          106.7          135.8          21.15
    0.1043              -52.89          2.679          45.01           41.7         -1.353          14.16          60.07          50.07          106.7          135.8          21.17
    0.1159              -52.89          2.687           45.0          41.71         -1.356          14.16          60.01          50.06          106.7          135.8           21.2
    0.1275              -52.89          2.696          44.99          41.71         -1.359          14.16          59.95          50.05          106.7          135.7          21.23
    0.1391              -52.89          2.706          44.98          41.71         -1.363          14.16          59.87          50.04          106.7          135.7          21.26
    0.1507              -52.89          2.716          44.97          41.72         -1.366          14.16           59.8          50.03          106.7          135.7          21.29
    0.1623              -52.89          2.727          44.95          41.72          -1.37          14.16          59.71          50.02          106.7          135.7          21.33
    0.1739              -52.88           2.74          44.94          41.73         -1.375          14.16          59.62          50.01          106.7          135.6          21.37
    0.1855              -52.88          2.753          44.93          41.73         -1.379          14.16          59.52           50.0          106.7          135.6          21.41
    0.1971              -52.88          2.767          44.91          41.74         -1.384          14.17          59.41          49.98          106.7          135.6          21.46
    0.2087              -52.88          2.783           44.9          41.75          -1.39          14.17           59.3          49.96          106.7          135.6          21.51
    0.2203              -52.88          2.801          44.88          41.75         -1.396          14.17          59.17          49.95          106.7          135.5          21.57
    0.2319              -52.87           2.82          44.86          41.76         -1.403          14.17          59.02          49.93          106.7          135.5          21.63
    0.2435              -52.87          2.841          44.84          41.77          -1.41          14.18          58.87           49.9          106.7          135.4           21.7
    0.2551              -52.87          2.864          44.81          41.78         -1.418          14.18           58.7          49.88          106.7          135.4          21.78
    0.2667              -52.87          2.889          44.78          41.79         -1.427          14.18           58.5          49.85          106.7          135.3          21.86
    0.2783              -52.86          2.918          44.76           41.8         -1.437          14.19          58.29          49.82          106.7          135.3          21.95
    0.2898              -52.86           2.95          44.72          41.82         -1.449          14.19          58.05          49.79          106.7          135.2          22.06
    0.3014              -52.85          2.985          44.68          41.83         -1.461           14.2          57.79          49.75          106.8          135.1          22.18
     0.313              -52.85          3.025          44.64          41.85         -1.475           14.2          57.49          49.71          106.8          135.0          22.31
    0.3246              -52.84          3.071          44.59          41.87         -1.491          14.21          57.15          49.66          106.8          134.9          22.45
    0.3362              -52.84          3.122          44.54          41.89         -1.509          14.21          56.77          49.61          106.8          134.8          22.62
    0.3478              -52.83          3.181          44.48          41.91          -1.53          14.22          56.33          49.55          106.8          134.7          22.82
    0.3594              -52.82          3.248          44.41          41.94         -1.554          14.23          55.83          49.48          106.8          134.6          23.04
     0.371              -52.81          3.326          44.33          41.98         -1.581          14.24          55.25           49.4          106.8          134.4          23.29
    0.3826               -52.8          3.416          44.23          42.01         -1.613          14.25          54.58           49.3          106.9          134.2          23.59
    0.3942              -52.79          3.522          44.12          42.06          -1.65          14.27          53.79          49.19          106.9          134.0          23.93
    0.4058              -52.77          3.647          43.99          42.11         -1.694          14.28          52.86          49.06          106.9          133.7          24.34
    0.4174              -52.75          3.795          43.84          42.17         -1.746           14.3          51.76          48.91          106.9          133.4          24.82
     0.429              -52.73          3.972          43.65          42.25         -1.809          14.33          50.43          48.72          107.0          133.0          25.41
    0.4406               -52.7          4.187          43.42          42.34         -1.884          14.35          48.83           48.5          107.0          132.5          26.11
    0.4522              -52.67          4.449          43.15          42.45         -1.977          14.39          46.88          48.22          107.1          132.0          26.97
    0.4638              -52.63          4.773          42.81          42.58         -2.091          14.43          44.46          47.88          107.2          131.3          28.03
    0.4753              -52.58          5.177          42.39          42.75         -2.233          14.49          41.45          47.46          107.3          130.4          29.35
    0.4869              -52.51          5.686          41.85          42.97         -2.412          14.55          37.66          46.93          107.4          129.3          31.01
